.
 
http://www.scenetime.com    -   SceneTime [ We been having it ] !!!


How come you press harder on a remote control when you know the battery is dead? so you better seed to get speed ;)

        Seed back for speed


...................................NFO:.................................................*******************************************************************************
                           Scream 4 2011BRRip -TVAL
*******************************************************************************

-------------------------------------------------------------------------------
                              General Information
-------------------------------------------------------------------------------
Type.................: Movie
Platform.............: BRRip
Part Size............: 1,213,928,922 bytes



Video Format.........: AVI
Source...............: 720p Crossbow thank!
Genre................: Horror | Mystery | Thriller 
IMDb Rating..........: 6.8
IMDB: http://www.imdb.com/title/tt1262416/

-------------------------------------------------------------------------------
                                 Release Notes
-------------------------------------------------------------------------------


Complete name                    : Scream 4 2011BRRip -TVAL.avi
Format                           : AVI
Format/Info                      : Audio Video Interleave
File size                        : 1.13 GiB
Duration                         : 1h 50mn
Overall bit rate                 : 1 462 Kbps
Writing application              : TMPGEnc Video Mastering Works 5 Version. 
5.0.5.32
Writing library                  : TMPGEnc Video Mastering Works 5 Version. 
5.0.5.32

Video
ID                               : 0
Format                           : MPEG-4 Visual
Format profile                   : Advanced Simple@L5
Format settings, BVOP            : Yes
Format settings, QPel            : No
Format settings, GMC             : No warppoints
Format settings, Matrix          : Default (H.263)
Codec ID                         : XVID
Codec ID/Hint                    : XviD
Duration                         : 1h 50mn
Bit rate                         : 1 326 Kbps
Width                            : 768 pixels
Height                           : 432 pixels
Display aspect ratio             : 16:9
Frame rate                       : 23.976 fps
Resolution                       : 8 bits
Colorimetry                      : 4:2:0
Scan type                        : Progressive
Bits/(Pixel*Frame)               : 0.167
Stream size                      : 1.03 GiB (91%)
Writing library                  : XviD 1.2.1 (UTC 2008-12-04)

Audio
ID                               : 1
Format                           : MPEG Audio
Format version                   : Version 1
Format profile                   : Layer 3
Format_Settings_Mode             : Joint stereo
Format_Settings_ModeExtension    : MS Stereo
Codec ID                         : 55
Codec ID/Hint                    : MP3
Duration                         : 1h 50mn
Bit rate mode                    : Constant
Bit rate                         : 128 Kbps
Channel(s)                       : 2 channels
Sampling rate                    : 48.0 KHz
Stream size                      : 101 MiB (9%)
Alignment                        : Aligned on interleaves
Interleave, duration             : 250 ms (5.99 video frames)
Interleave, preload duration     : 432 ms



-------------------------------------------------------------------------------
Generated with Cool NFO Creator - http://fly.to/coolbeans
-------------------------------------------------------------------------------